<svg width="150" height="150" viewBox="0 0 150 150" fill="none" xmlns="http://www.w3.org/2000/svg">
<circle cx="74.6895" cy="64.7368" r="59.2105" fill="url(#paint0_linear_307_241)"/>
<path d="M71.8939 91.3622L59.5679 97.8949C58.4676 98.4754 57.2268 98.7359 55.986 98.6469C54.7452 98.5579 53.5543 98.1229 52.5481 97.3914C51.542 96.6599 50.761 95.6611 50.2937 94.5083C49.8264 93.3555 49.6915 92.0947 49.9043 90.8691L52.3695 77.0147C52.553 75.9503 52.4738 74.8572 52.1387 73.8304C51.8036 72.8035 51.2227 71.8741 50.4466 71.1229L40.3886 61.2621C39.5203 60.407 38.9034 59.3299 38.6052 58.1483C38.3069 56.9667 38.3388 55.7258 38.6974 54.5611C39.056 53.3964 39.7275 52.3524 40.6386 51.5431C41.5498 50.7338 42.6656 50.1902 43.8646 49.9715L57.7929 47.95C58.8478 47.7838 59.8469 47.3653 60.7053 46.7301C61.5637 46.0949 62.256 45.2617 62.7233 44.3015L68.9603 31.7044C69.5105 30.5922 70.3607 29.656 71.4149 29.0014C72.469 28.3469 73.6852 28 74.926 28C76.1669 28 77.383 28.3469 78.4372 29.0014C79.4914 29.656 80.3416 30.5922 80.8918 31.7044L87.1288 44.3015C87.5961 45.2617 88.2884 46.0949 89.1468 46.7301C90.0052 47.3653 91.0043 47.7838 92.0592 47.95L106.209 49.9715C107.439 50.1509 108.595 50.6712 109.544 51.4735C110.494 52.2758 111.2 53.3279 111.582 54.5108C111.965 55.6937 112.008 56.96 111.708 58.1663C111.407 59.3726 110.775 60.4706 109.883 61.3361L99.8245 71.1969C99.0353 71.9408 98.4405 72.8669 98.0924 73.8941C97.7442 74.9213 97.6534 76.0182 97.8277 77.0887L100.293 90.9431C100.506 92.1687 100.371 93.4294 99.9035 94.5823C99.4362 95.7351 98.6552 96.7339 97.6491 97.4654C96.643 98.1969 95.452 98.6318 94.2112 98.7208C92.9704 98.8098 91.7296 98.5493 90.6293 97.9689L78.3034 91.4361C77.3291 90.8808 76.2295 90.5827 75.1082 90.5698C73.9868 90.5568 72.8807 90.8295 71.8939 91.3622Z" fill="url(#paint1_linear_307_241)" stroke="black" stroke-miterlimit="10" stroke-linecap="round" stroke-linejoin="round"/>
<path d="M140.574 64.4175L129.506 59.6596C128.653 59.2932 127.902 58.7247 127.317 58.0032C126.733 57.2816 126.334 56.4287 126.153 55.5181L123.688 43.7098C123.474 42.6727 122.976 41.7153 122.251 40.9442C121.525 40.1732 120.599 39.6187 119.577 39.3427C118.555 39.0667 117.476 39.0799 116.461 39.3809C115.445 39.6819 114.534 40.2588 113.827 41.0474L106.209 49.9714C107.44 50.1508 108.595 50.6711 109.544 51.4734C110.494 52.2757 111.2 53.3278 111.582 54.5107C111.965 55.6936 112.008 56.9599 111.708 58.1662C111.407 59.3725 110.775 60.4705 109.883 61.336L99.8246 71.1967C99.0353 71.9406 98.4406 72.8668 98.0924 73.894C97.7443 74.9212 97.6534 76.0181 97.8278 77.0886L100.293 90.943C100.293 91.2388 100.293 91.51 100.293 91.8058L103.054 91.1895C103.955 90.9868 104.891 91.0041 105.784 91.2402C106.676 91.4762 107.499 91.9239 108.182 92.5454L117.032 100.73C117.816 101.451 118.785 101.938 119.831 102.138C120.878 102.337 121.959 102.241 122.953 101.859C123.947 101.477 124.815 100.825 125.459 99.9767C126.103 99.1283 126.497 98.117 126.597 97.0567L127.706 85.0512C127.79 84.1327 128.096 83.2486 128.599 82.4753C129.101 81.7021 129.785 81.0631 130.59 80.6138L141.117 74.6234C142.037 74.0977 142.794 73.3265 143.301 72.3959C143.809 71.4653 144.048 70.4118 143.992 69.3532C143.936 68.2946 143.586 67.2724 142.983 66.4008C142.379 65.5293 141.545 64.8426 140.574 64.4175Z" fill="white" stroke="black" stroke-linecap="round" stroke-linejoin="round"/>
<path d="M52.1723 77.0886C52.3558 76.0242 52.2766 74.931 51.9415 73.9042C51.6064 72.8774 51.0255 71.948 50.2494 71.1968L40.1914 61.336C39.299 60.4705 38.6668 59.3725 38.3664 58.1662C38.066 56.9599 38.1094 55.6936 38.4917 54.5107C38.874 53.3279 39.58 52.2757 40.5296 51.4734C41.4792 50.6711 42.6344 50.1508 43.8646 49.9714L36.0745 41.0721C35.3678 40.2835 34.4561 39.7065 33.4409 39.4056C32.4256 39.1046 31.3468 39.0914 30.3245 39.3674C29.3022 39.6434 28.3766 40.1978 27.6508 40.9689C26.925 41.74 26.4275 42.6974 26.2137 43.7345L23.8718 55.5428C23.6911 56.4534 23.2914 57.3063 22.7073 58.0278C22.1231 58.7494 21.3721 59.3179 20.5191 59.6843L9.42575 64.4175C8.4546 64.8426 7.62072 65.5293 7.01721 66.4008C6.4137 67.2724 6.06432 68.2946 6.00806 69.3532C5.9518 70.4118 6.19089 71.4653 6.69863 72.3959C7.20637 73.3265 7.96278 74.0977 8.8834 74.6234L19.4098 80.5152C20.2368 80.9547 20.9421 81.5923 21.4626 82.3709C21.9832 83.1495 22.3027 84.0449 22.3927 84.9772L23.502 96.9827C23.602 98.043 23.9961 99.0543 24.6399 99.9027C25.2836 100.751 26.1515 101.403 27.1457 101.785C28.1399 102.167 29.221 102.263 30.2672 102.064C31.3133 101.864 32.283 101.377 33.067 100.656L41.9171 92.4714C42.5999 91.8499 43.4224 91.4022 44.315 91.1662C45.2076 90.9302 46.1439 90.9128 47.0447 91.1155L49.8057 91.7318C49.7813 91.4447 49.7813 91.1561 49.8057 90.869L52.1723 77.0886Z" fill="white" stroke="black" stroke-linecap="round" stroke-linejoin="round"/>
<defs>
<linearGradient id="paint0_linear_307_241" x1="29.6895" y1="23.2895" x2="107.058" y2="118.026" gradientUnits="userSpaceOnUse">
<stop stop-color="#9D57A2"/>
<stop offset="1" stop-color="#60A8D4"/>
</linearGradient>
<linearGradient id="paint1_linear_307_241" x1="114.967" y1="24.0701" x2="38.4283" y2="104.62" gradientUnits="userSpaceOnUse">
<stop stop-color="#FCA522"/>
<stop offset="1" stop-color="#FCD93D"/>
</linearGradient>
</defs>
</svg>
