<svg width="150" height="150" viewBox="0 0 150 150" fill="none" xmlns="http://www.w3.org/2000/svg">
<circle cx="74.6895" cy="64.7368" r="59.2105" fill="url(#paint0_linear_306_181)"/>
<path d="M121.501 119.762L128.032 126.292" stroke="#0E1E2A" stroke-linecap="round" stroke-linejoin="round"/>
<path d="M111.323 122.902V132.121" stroke="#0E1E2A" stroke-linecap="round" stroke-linejoin="round"/>
<path d="M124.64 109.583H133.881" stroke="#0E1E2A" stroke-linecap="round" stroke-linejoin="round"/>
<path d="M88.6128 78.6801V109.198" stroke="#0E1E2A" stroke-linecap="round" stroke-linejoin="round"/>
<path d="M69.022 109.198H90.9182H108.226" stroke="#0E1E2A" stroke-linecap="round" stroke-linejoin="round"/>
<path d="M88.6155 38.6224C88.0499 38.6224 87.497 38.4547 87.0267 38.1405C86.5564 37.8262 86.1899 37.3796 85.9734 36.8571C85.757 36.3345 85.7003 35.7595 85.8107 35.2048C85.921 34.6501 86.1934 34.1405 86.5933 33.7406C86.9933 33.3406 87.5028 33.0682 88.0576 32.9579C88.6123 32.8476 89.1873 32.9042 89.7099 33.1206C90.2324 33.3371 90.679 33.7036 90.9933 34.1739C91.3075 34.6442 91.4752 35.1971 91.4752 35.7627C91.4752 36.5211 91.1739 37.2485 90.6376 37.7848C90.1013 38.3211 89.3739 38.6224 88.6155 38.6224Z" fill="url(#paint1_linear_306_181)"/>
<path d="M88.6155 38.6224C88.0499 38.6224 87.497 38.4547 87.0267 38.1405C86.5564 37.8262 86.1899 37.3796 85.9734 36.8571C85.757 36.3345 85.7003 35.7595 85.8107 35.2048C85.921 34.6501 86.1934 34.1405 86.5933 33.7406C86.9933 33.3406 87.5028 33.0682 88.0576 32.9579C88.6123 32.8476 89.1873 32.9042 89.7099 33.1206C90.2324 33.3371 90.679 33.7036 90.9933 34.1739C91.3075 34.6442 91.4752 35.1971 91.4752 35.7627C91.4752 36.5211 91.1739 37.2485 90.6376 37.7848C90.1013 38.3211 89.3739 38.6224 88.6155 38.6224Z" stroke="#0E1E2A" stroke-linecap="round" stroke-linejoin="round"/>
<path d="M133.836 34.034C133.836 32.3359 133.161 30.7075 131.961 29.5068C130.76 28.3061 129.132 27.6316 127.434 27.6316H49.8153C48.1173 27.6316 46.4888 28.3061 45.2881 29.5068C44.0874 30.7075 43.4129 32.3359 43.4129 34.034V83.2897H133.9L133.836 34.034Z" fill="white"/>
<path d="M133.836 34.034C133.836 32.3359 133.161 30.7075 131.961 29.5068C130.76 28.3061 129.132 27.6316 127.434 27.6316H49.8153C48.1173 27.6316 46.4888 28.3061 45.2881 29.5068C44.0874 30.7075 43.4129 32.3359 43.4129 34.034V83.2897H133.9L133.836 34.034Z" stroke="#0E1E2A" stroke-linecap="round" stroke-linejoin="round"/>
<path d="M43.3925 83.2897V88.0275C43.3925 89.8274 44.1075 91.5535 45.3802 92.8263C46.6529 94.099 48.3791 94.814 50.179 94.814H127.008C127.906 94.8253 128.798 94.6581 129.631 94.3221C130.464 93.9861 131.223 93.488 131.862 92.8567C132.501 92.2254 133.009 91.4734 133.355 90.6444C133.701 89.8154 133.88 88.9259 133.88 88.0275V83.2897H43.3925Z" fill="url(#paint2_linear_306_181)"/>
<path d="M43.3925 83.2897V88.0275C43.3925 89.8274 44.1075 91.5535 45.3802 92.8263C46.6529 94.099 48.3791 94.814 50.179 94.814H127.008C127.906 94.8253 128.798 94.6581 129.631 94.3221C130.464 93.9861 131.223 93.488 131.862 92.8567C132.501 92.2254 133.009 91.4734 133.355 90.6444C133.701 89.8154 133.88 88.9259 133.88 88.0275V83.2897H43.3925Z" stroke="#0E1E2A" stroke-linecap="round" stroke-linejoin="round"/>
<path d="M49.4955 132.118H29.9042C28.1722 132.118 26.5111 131.43 25.2864 130.206C24.0617 128.981 23.3737 127.32 23.3737 125.588V81.4115C23.3737 80.5539 23.5426 79.7047 23.8708 78.9124C24.199 78.1201 24.68 77.4002 25.2864 76.7937C25.8928 76.1873 26.6128 75.7063 27.4051 75.3781C28.1974 75.0499 29.0466 74.881 29.9042 74.881H49.4955C50.3531 74.881 51.2023 75.0499 51.9946 75.3781C52.7869 75.7063 53.5068 76.1873 54.1132 76.7937C54.7196 77.4002 55.2006 78.1201 55.5288 78.9124C55.857 79.7047 56.0259 80.5539 56.0259 81.4115V125.588C56.0259 126.446 55.857 127.295 55.5288 128.087C55.2006 128.879 54.7196 129.599 54.1132 130.206C53.5068 130.812 52.7869 131.293 51.9946 131.621C51.2023 131.949 50.3531 132.118 49.4955 132.118" fill="white"/>
<path d="M49.5168 74.881H29.9042C26.2975 74.881 23.3737 77.8048 23.3737 81.4115V125.609C23.3737 129.216 26.2975 132.14 29.9042 132.14H49.5168C53.1235 132.14 56.0473 129.216 56.0473 125.609V81.4115C56.0473 77.8048 53.1235 74.881 49.5168 74.881Z" stroke="#0E1E2A" stroke-linecap="round" stroke-linejoin="round"/>
<path d="M35.8575 127.85H43.5404" stroke="#0E1E2A" stroke-linecap="round" stroke-linejoin="round"/>
<path d="M35.689 106.936C34.8903 106.14 34.3459 105.125 34.1245 104.019C33.9032 102.913 34.015 101.766 34.4458 100.724C34.8765 99.6818 35.6068 98.7908 36.5443 98.1639C37.4817 97.537 38.5841 97.2024 39.7119 97.2024C40.8396 97.2024 41.942 97.537 42.8794 98.1639C43.8169 98.7908 44.5472 99.6818 44.978 100.724C45.4087 101.766 45.5205 102.913 45.2992 104.019C45.0779 105.125 44.5334 106.14 43.7347 106.936C43.2087 107.468 42.5823 107.891 41.8917 108.179C41.2012 108.468 40.4602 108.616 39.7119 108.616C38.9635 108.616 38.2226 108.468 37.532 108.179C36.8415 107.891 36.215 107.468 35.689 106.936" fill="url(#paint3_linear_306_181)"/>
<path d="M35.689 106.936C34.8903 106.14 34.3459 105.125 34.1245 104.019C33.9032 102.913 34.015 101.766 34.4458 100.724C34.8765 99.6818 35.6068 98.7908 36.5443 98.1639C37.4817 97.537 38.5841 97.2024 39.7119 97.2024C40.8396 97.2024 41.942 97.537 42.8794 98.1639C43.8169 98.7908 44.5472 99.6818 44.978 100.724C45.4087 101.766 45.5205 102.913 45.2992 104.019C45.0779 105.125 44.5334 106.14 43.7347 106.936C43.2087 107.468 42.5823 107.891 41.8917 108.179C41.2012 108.468 40.4602 108.616 39.7119 108.616C38.9635 108.616 38.2226 108.468 37.532 108.179C36.8415 107.891 36.215 107.468 35.689 106.936V106.936Z" stroke="#0E1E2A" stroke-linecap="round" stroke-linejoin="round"/>
<defs>
<linearGradient id="paint0_linear_306_181" x1="29.6895" y1="23.2895" x2="107.058" y2="118.026" gradientUnits="userSpaceOnUse">
<stop stop-color="#00CE7C"/>
<stop offset="1" stop-color="#4AC1E0"/>
</linearGradient>
<linearGradient id="paint1_linear_306_181" x1="85.3586" y1="35.7627" x2="92.1107" y2="35.7627" gradientUnits="userSpaceOnUse">
<stop stop-color="#08D18B"/>
<stop offset="1" stop-color="#25B9EF"/>
</linearGradient>
<linearGradient id="paint2_linear_306_181" x1="137.65" y1="82.6494" x2="134.558" y2="107.233" gradientUnits="userSpaceOnUse">
<stop stop-color="#FCA522"/>
<stop offset="1" stop-color="#FCD93D"/>
</linearGradient>
<linearGradient id="paint3_linear_306_181" x1="33.2223" y1="102.909" x2="46.6762" y2="102.909" gradientUnits="userSpaceOnUse">
<stop stop-color="#08D18B"/>
<stop offset="1" stop-color="#25B9EF"/>
</linearGradient>
</defs>
</svg>
