<svg width="150" height="150" viewBox="0 0 150 150" fill="none" xmlns="http://www.w3.org/2000/svg">
<circle cx="74.6895" cy="64.7368" r="59.2105" fill="url(#paint0_linear_307_264)"/>
<path d="M108.673 22.681H87.1504V35.2007H108.673V22.681Z" fill="url(#paint1_linear_307_264)"/>
<path d="M108.673 22.681H87.1504V35.2007H108.673V22.681Z" stroke="#0E1E2A" stroke-linecap="round" stroke-linejoin="round"/>
<path d="M74.7951 62.139V8.6842" stroke="#0E1E2A" stroke-linecap="round" stroke-linejoin="round"/>
<path d="M96.2942 14.2407H74.7717V26.7603H96.2942V14.2407Z" fill="url(#paint2_linear_307_264)"/>
<path d="M96.2942 14.2407H74.7717V26.7603H96.2942V14.2407Z" stroke="#0E1E2A" stroke-linecap="round" stroke-linejoin="round"/>
<path d="M102.53 77.8471L85.9079 61.2246L81.0783 66.0543L74.8184 59.7944L68.9337 65.7026L64.104 60.8964L43.0035 81.9969L75.9907 100.964L102.53 77.8471Z" fill="white"/>
<path d="M102.53 77.8471L85.9079 61.2246L81.0783 66.0543L74.8184 59.7944L68.9337 65.7026L64.104 60.8964L43.0035 81.9969L75.9907 100.964L102.53 77.8471Z" stroke="#0E1E2A" stroke-linecap="round" stroke-linejoin="round"/>
<path d="M84.5012 59.7945L74.8419 50.1585L65.2059 59.7945L64.104 60.8964L68.9337 65.7026L74.8184 59.7945L81.0783 66.0543L85.9079 61.2246L84.5012 59.7945Z" fill="url(#paint3_linear_307_264)"/>
<path d="M84.5012 59.7945L74.8419 50.1585L65.2059 59.7945L64.104 60.8964L68.9337 65.7026L74.8184 59.7945L81.0783 66.0543L85.9079 61.2246L84.5012 59.7945Z" stroke="#0E1E2A" stroke-linecap="round" stroke-linejoin="round"/>
<path d="M46.7546 124.268L105.203 65.7964L133.9 94.4931V124.268H46.7546Z" fill="white"/>
<path d="M46.7546 124.268L105.203 65.7964L133.9 94.4931V124.268H46.7546Z" stroke="#0E1E2A" stroke-linecap="round" stroke-linejoin="round"/>
<path d="M102.624 124.268L44.1757 65.7964L15.479 94.4931V124.268H102.624Z" fill="white"/>
<path d="M102.624 124.268L44.1757 65.7964L15.479 94.4931V124.268H102.624Z" stroke="#0E1E2A" stroke-linecap="round" stroke-linejoin="round"/>
<defs>
<linearGradient id="paint0_linear_307_264" x1="29.6895" y1="23.2895" x2="107.058" y2="118.026" gradientUnits="userSpaceOnUse">
<stop stop-color="#FED925"/>
<stop offset="1" stop-color="#FFB71B"/>
</linearGradient>
<linearGradient id="paint1_linear_307_264" x1="109.57" y1="21.9854" x2="97.8538" y2="42.3847" gradientUnits="userSpaceOnUse">
<stop stop-color="#FCA522"/>
<stop offset="1" stop-color="#FCD93D"/>
</linearGradient>
<linearGradient id="paint2_linear_307_264" x1="97.191" y1="13.5451" x2="85.475" y2="33.9444" gradientUnits="userSpaceOnUse">
<stop stop-color="#FCA522"/>
<stop offset="1" stop-color="#FCD93D"/>
</linearGradient>
<linearGradient id="paint3_linear_307_264" x1="62.5899" y1="58.1064" x2="88.3306" y2="58.1064" gradientUnits="userSpaceOnUse">
<stop stop-color="#08D18B"/>
<stop offset="1" stop-color="#25B9EF"/>
</linearGradient>
</defs>
</svg>
