<?xml version="1.0" encoding="utf-8"?>
<!-- Generator: Adobe Illustrator 25.4.1, SVG Export Plug-In . SVG Version: 6.00 Build 0)  -->
<svg version="1.1" id="Layer_1" xmlns="http://www.w3.org/2000/svg" xmlns:xlink="http://www.w3.org/1999/xlink" x="0px" y="0px"
	 viewBox="0 0 223.4 71.58" style="enable-background:new 0 0 223.4 71.58;" xml:space="preserve">
<style type="text/css">
	.st0{fill:#FFFFFF;}
	.st1{fill:url(#SVGID_1_);}
</style>
<g>
	<g>
		<path class="st0" d="M4.18,65.66c0.49-1.07,1.3-1.42,2.43-1.05c1.56,0.58,3.13,0.87,4.72,0.87c1.95,0,3.54-0.46,4.76-1.37
			c1.22-0.92,1.83-2.35,1.83-4.31v-1.74l0.09-1.19h-0.09c-1.34,2.32-3.48,3.48-6.41,3.48c-3.3,0-5.89-1.13-7.77-3.39
			c-1.88-2.26-2.82-5.09-2.82-8.47c0-3.36,0.92-6.13,2.75-8.32c1.83-2.18,4.43-3.28,7.79-3.28c1.01,0,1.94,0.12,2.79,0.37
			c0.85,0.24,1.53,0.54,2.02,0.89c0.49,0.35,0.9,0.7,1.24,1.05c0.34,0.35,0.56,0.65,0.69,0.89l0.18,0.37h0.09
			c-0.03-0.15-0.05-0.35-0.05-0.6v-0.87c0-0.46,0.16-0.83,0.48-1.12c0.32-0.29,0.79-0.44,1.4-0.44h1.56c1.25,0,1.88,0.64,1.88,1.92
			v20.02c0,3.69-1.2,6.46-3.6,8.29c-2.4,1.83-5.23,2.75-8.5,2.75c-2.63,0-4.9-0.41-6.83-1.24c-1.16-0.49-1.5-1.31-1.01-2.47
			L4.18,65.66z M12.66,55.44c1.56,0,2.85-0.53,3.87-1.6c1.02-1.07,1.53-2.81,1.53-5.22c0-4.52-1.89-6.78-5.68-6.78
			c-1.77,0-3.15,0.58-4.12,1.74c-0.98,1.16-1.47,2.72-1.47,4.67c0,2.17,0.52,3.91,1.56,5.22C9.39,54.78,10.83,55.44,12.66,55.44z"/>
		<path class="st0" d="M28.74,52.46v-13.1c0-1.28,0.64-1.92,1.92-1.92h1.97c1.28,0,1.92,0.64,1.92,1.92v11.91
			c0,1.56,0.27,2.74,0.8,3.55c0.53,0.81,1.47,1.21,2.82,1.21c2.02,0,3.61-0.76,4.79-2.29c1.18-1.53,1.76-3.39,1.76-5.59v-8.8
			c0-1.28,0.64-1.92,1.92-1.92h1.97c1.28,0,1.92,0.64,1.92,1.92v19.52c0,1.28-0.64,1.92-1.92,1.92h-1.79
			c-1.25,0-1.88-0.64-1.88-1.92V57.5l0.09-1.05h-0.09c-0.61,1.31-1.65,2.46-3.11,3.44c-1.47,0.98-3.13,1.47-4.99,1.47
			C31.44,61.35,28.74,58.39,28.74,52.46z"/>
		<path class="st0" d="M55.81,58.88V39.36c0-1.28,0.63-1.92,1.88-1.92h1.79c1.25,0,1.88,0.64,1.88,1.92v1.42l-0.09,1.05h0.09
			c0.64-1.31,1.66-2.47,3.05-3.46c1.39-0.99,2.92-1.49,4.6-1.49c3.57,0,5.85,1.6,6.83,4.81h0.09c0.67-1.31,1.73-2.44,3.18-3.39
			c1.45-0.95,3.05-1.42,4.79-1.42c5.1,0,7.65,2.96,7.65,8.89v13.1c0,1.28-0.64,1.92-1.92,1.92h-1.97c-1.28,0-1.92-0.64-1.92-1.92
			v-12c0-1.53-0.22-2.69-0.66-3.48c-0.44-0.79-1.29-1.19-2.54-1.19c-1.86,0-3.32,0.8-4.37,2.4c-1.05,1.6-1.58,3.5-1.58,5.7v8.57
			c0,1.28-0.63,1.92-1.88,1.92h-2.02c-1.28,0-1.92-0.64-1.92-1.92v-12c0-1.5-0.21-2.65-0.62-3.46c-0.41-0.81-1.24-1.21-2.5-1.21
			c-1.92,0-3.41,0.81-4.47,2.43c-1.05,1.62-1.58,3.51-1.58,5.68v8.57c0,1.28-0.63,1.92-1.88,1.92h-2.02
			C56.44,60.8,55.81,60.16,55.81,58.88z"/>
		<path class="st0" d="M98.42,65.66c0.49-1.07,1.3-1.42,2.43-1.05c1.56,0.58,3.13,0.87,4.72,0.87c1.95,0,3.54-0.46,4.76-1.37
			c1.22-0.92,1.83-2.35,1.83-4.31v-1.74l0.09-1.19h-0.09c-1.34,2.32-3.48,3.48-6.41,3.48c-3.3,0-5.89-1.13-7.77-3.39
			c-1.88-2.26-2.82-5.09-2.82-8.47c0-3.36,0.92-6.13,2.75-8.32c1.83-2.18,4.43-3.28,7.79-3.28c1.01,0,1.94,0.12,2.79,0.37
			c0.85,0.24,1.53,0.54,2.02,0.89c0.49,0.35,0.9,0.7,1.24,1.05c0.34,0.35,0.56,0.65,0.69,0.89l0.18,0.37h0.09
			c-0.03-0.15-0.05-0.35-0.05-0.6v-0.87c0-0.46,0.16-0.83,0.48-1.12c0.32-0.29,0.79-0.44,1.4-0.44h1.56c1.25,0,1.88,0.64,1.88,1.92
			v20.02c0,3.69-1.2,6.46-3.6,8.29c-2.4,1.83-5.23,2.75-8.5,2.75c-2.63,0-4.9-0.41-6.83-1.24c-1.16-0.49-1.5-1.31-1.01-2.47
			L98.42,65.66z M106.89,55.44c1.56,0,2.85-0.53,3.87-1.6c1.02-1.07,1.53-2.81,1.53-5.22c0-4.52-1.89-6.78-5.68-6.78
			c-1.77,0-3.15,0.58-4.12,1.74c-0.98,1.16-1.47,2.72-1.47,4.67c0,2.17,0.52,3.91,1.56,5.22C103.62,54.78,105.06,55.44,106.89,55.44
			z"/>
		<path class="st0" d="M122.97,52.46v-13.1c0-1.28,0.64-1.92,1.92-1.92h1.97c1.28,0,1.92,0.64,1.92,1.92v11.91
			c0,1.56,0.27,2.74,0.8,3.55c0.53,0.81,1.47,1.21,2.82,1.21c2.02,0,3.61-0.76,4.79-2.29c1.18-1.53,1.76-3.39,1.76-5.59v-8.8
			c0-1.28,0.64-1.92,1.92-1.92h1.97c1.28,0,1.92,0.64,1.92,1.92v19.52c0,1.28-0.64,1.92-1.92,1.92h-1.79
			c-1.25,0-1.88-0.64-1.88-1.92V57.5l0.09-1.05h-0.09c-0.61,1.31-1.65,2.46-3.11,3.44c-1.47,0.98-3.13,1.47-4.99,1.47
			C125.67,61.35,122.97,58.39,122.97,52.46z"/>
		<path class="st0" d="M150.04,58.88V39.36c0-1.28,0.63-1.92,1.88-1.92h1.79c1.25,0,1.88,0.64,1.88,1.92v1.42l-0.09,1.05h0.09
			c0.64-1.31,1.66-2.47,3.05-3.46c1.39-0.99,2.92-1.49,4.6-1.49c3.57,0,5.85,1.6,6.83,4.81h0.09c0.67-1.31,1.73-2.44,3.18-3.39
			c1.45-0.95,3.05-1.42,4.79-1.42c5.1,0,7.65,2.96,7.65,8.89v13.1c0,1.28-0.64,1.92-1.92,1.92h-1.97c-1.28,0-1.92-0.64-1.92-1.92
			v-12c0-1.53-0.22-2.69-0.66-3.48c-0.44-0.79-1.29-1.19-2.54-1.19c-1.86,0-3.32,0.8-4.37,2.4c-1.05,1.6-1.58,3.5-1.58,5.7v8.57
			c0,1.28-0.63,1.92-1.88,1.92h-2.02c-1.28,0-1.92-0.64-1.92-1.92v-12c0-1.5-0.21-2.65-0.62-3.46c-0.41-0.81-1.24-1.21-2.5-1.21
			c-1.92,0-3.41,0.81-4.47,2.43c-1.05,1.62-1.58,3.51-1.58,5.68v8.57c0,1.28-0.63,1.92-1.88,1.92h-2.02
			C150.67,60.8,150.04,60.16,150.04,58.88z"/>
	</g>
</g>
<linearGradient id="SVGID_1_" gradientUnits="userSpaceOnUse" x1="184.6199" y1="19.964" x2="222.4698" y2="19.964">
	<stop  offset="0" style="stop-color:#00CE7C"/>
	<stop  offset="0.9984" style="stop-color:#4AC1E0"/>
</linearGradient>
<path class="st1" d="M215.03,1.16h-11.57c-4.1,0-7.44,3.34-7.44,7.44v13.42c0,0.05,0,0.09-0.01,0.12c-0.09,0.02-0.21,0.03-0.31,0.03
	l-5.38-0.01c-3.15,0-5.71,2.56-5.71,5.71v5.2c0,3.15,2.56,5.71,5.71,5.71h5.2c3.15,0,5.71-2.56,5.71-5.71v-5.21l0-0.02
	c0-0.06,0.02-0.14,0.04-0.19c0.05-0.01,0.15-0.03,0.31-0.03h13.44c4.1,0,7.44-3.34,7.44-7.44V8.59
	C222.47,4.49,219.13,1.16,215.03,1.16z M217.26,8.59v11.57c0,1.22-1,2.22-2.22,2.22h-13.44c-0.12,0-0.24,0-0.36,0.01
	c0.01-0.11,0.01-0.22,0.01-0.33V8.59c0-1.22,1-2.22,2.22-2.22h11.57C216.26,6.37,217.26,7.37,217.26,8.59z M196.05,27.37
	c-0.02,0.23-0.02,0.41-0.02,0.53v5.16c0,0.26-0.23,0.5-0.5,0.5h-5.2c-0.26,0-0.5-0.23-0.5-0.5v-5.2c0-0.26,0.23-0.5,0.5-0.5l5.07,0
	C195.56,27.37,195.81,27.38,196.05,27.37z"/>
</svg>
